<svg xmlns="http://www.w3.org/2000/svg" width="256" height="256" viewBox="0 0 100 100"><rect width="100" height="100" rx="0" fill="#88799f"></rect><path fill="#fff" d="M46.39 58.32L46.39 58.95Q46.39 68.63 41.93 74.51Q37.48 80.39 29.98 80.39L29.98 80.39Q21.97 80.39 17.60 74.73L17.60 74.73L17.25 79.61L10.61 79.61L10.61 19.61L17.83 19.61L17.83 41.99Q22.21 36.56 29.90 36.56Q37.60 36.56 41.99 42.38Q46.39 48.20 46.39 58.32L46.39 58.32ZM39.16 58.13L39.16 58.13Q39.16 50.74 36.31 46.72Q33.46 42.70 28.11 42.70L28.11 42.70Q20.96 42.70 17.83 49.34L17.83 49.34L17.83 67.62Q21.15 74.26 28.18 74.26L28.18 74.26Q33.38 74.26 36.27 70.23Q39.16 66.21 39.16 58.13ZM53.73 58.67L53.73 58.13Q53.73 48.40 58.34 42.48Q62.95 36.56 70.41 36.56L70.41 36.56Q77.83 36.56 82.17 41.64L82.17 41.64L82.17 19.61L89.39 19.61L89.39 79.61L82.75 79.61L82.40 75.08Q78.07 80.39 70.33 80.39L70.33 80.39Q62.99 80.39 58.36 74.38Q53.73 68.36 53.73 58.67L53.73 58.67ZM60.96 58.95L60.96 58.95Q60.96 66.13 63.93 70.20Q66.89 74.26 72.13 74.26L72.13 74.26Q79.00 74.26 82.17 68.09L82.17 68.09L82.17 48.67Q78.93 42.70 72.21 42.70L72.21 42.70Q66.89 42.70 63.93 46.80Q60.96 50.90 60.96 58.95Z"></path></svg>