<svg xmlns="http://www.w3.org/2000/svg" width="256" height="256" viewBox="0 0 100 100"><rect width="100" height="100" rx="0" fill="#007559"></rect><path d="M46.66 57.70L46.66 58.27Q46.66 67.24 42.54 72.67Q38.42 78.11 31.48 78.11L31.48 78.11Q24.07 78.11 20.03 72.87L20.03 72.87L19.70 77.39L13.56 77.39L13.56 21.89L20.24 21.89L20.24 42.59Q24.29 37.57 31.41 37.57Q38.53 37.57 42.59 42.95Q46.66 48.34 46.66 57.70L46.66 57.70ZM39.97 57.52L39.97 57.52Q39.97 50.69 37.34 46.96Q34.70 43.24 29.75 43.24L29.75 43.24Q23.14 43.24 20.24 49.39L20.24 49.39L20.24 66.30Q23.32 72.44 29.82 72.44L29.82 72.44Q34.63 72.44 37.30 68.72Q39.97 65.00 39.97 57.52ZM53.45 58.02L53.45 57.52Q53.45 48.52 57.71 43.04Q61.98 37.57 68.88 37.57L68.88 37.57Q75.74 37.57 79.76 42.27L79.76 42.27L79.76 21.89L86.44 21.89L86.44 77.39L80.30 77.39L79.97 73.20Q75.96 78.11 68.81 78.11L68.81 78.11Q62.01 78.11 57.73 72.55Q53.45 66.98 53.45 58.02L53.45 58.02ZM60.14 58.27L60.14 58.27Q60.14 64.92 62.88 68.68Q65.63 72.44 70.47 72.44L70.47 72.44Q76.83 72.44 79.76 66.73L79.76 66.73L79.76 48.77Q76.76 43.24 70.54 43.24L70.54 43.24Q65.63 43.24 62.88 47.04Q60.14 50.83 60.14 58.27Z" fill="#fff"></path></svg>